<svg version="1.1" id="Layer_1" xmlns="http://www.w3.org/2000/svg" xmlns:xlink="http://www.w3.org/1999/xlink" x="0px" y="0px"
	 width="100%" viewBox="0 0 500 500" enable-background="new 0 0 500 500" xml:space="preserve">
<path fill="#FFFFFF" opacity="1.000000" stroke="none" 
	d="
M501.000000,177.000000 
	C501.000000,285.333313 501.000000,393.166595 501.000000,500.999939 
	C334.333405,500.999939 167.666794,500.999939 1.000147,500.999969 
	C1.000098,334.333435 1.000098,167.666870 1.000049,1.000237 
	C167.666519,1.000158 334.333038,1.000158 500.999786,1.000079 
	C501.000000,59.500000 501.000000,118.000000 501.000000,177.000000 
M105.187057,370.342590 
	C92.045174,371.616943 79.128296,373.751526 67.038521,379.502136 
	C64.186264,380.858856 62.794350,382.324036 62.913147,385.799744 
	C63.226044,394.954285 63.018745,404.126617 63.018692,413.291870 
	C63.018639,422.373260 63.018684,431.454651 63.018684,440.805817 
	C68.013443,438.818481 72.389236,436.797668 76.940498,435.315765 
	C94.983833,429.440857 113.577560,428.681519 132.235214,430.571594 
	C148.812271,432.250916 164.076935,437.520691 177.993179,447.388611 
	C186.439270,453.377625 196.114395,458.181305 205.901474,461.636353 
	C248.337616,476.617126 289.405273,475.251678 328.525330,450.464996 
	C354.530884,433.987762 383.303925,425.230072 414.048615,423.367737 
	C422.272003,422.869629 430.551147,423.292450 438.663452,423.292450 
	C438.663452,403.983063 438.663452,384.261993 438.663452,363.090607 
	C424.113098,363.860809 410.038574,364.605804 395.984100,364.365295 
	C395.997559,313.038788 396.011017,261.712280 396.934357,210.199432 
	C413.259308,210.255844 428.820862,206.264297 444.131866,201.117767 
	C449.691895,199.248871 451.460876,195.414642 449.975952,189.736679 
	C448.761719,185.093704 445.668579,183.040512 440.040405,184.001022 
	C432.691742,185.255142 425.488098,187.528610 418.108551,188.384628 
	C410.812103,189.230988 403.374390,188.859146 395.998871,188.081482 
	C395.999115,140.082077 396.005249,92.082672 395.994232,44.083271 
	C395.992188,35.136391 392.066986,31.012415 383.437134,31.010717 
	C295.104858,30.993334 206.772568,30.992773 118.440285,31.012453 
	C110.222725,31.014284 106.022560,35.115368 106.016876,43.205776 
	C105.983742,90.371857 105.999741,137.537979 106.014503,184.704086 
	C106.014915,186.032227 106.187447,187.360321 105.538231,188.963531 
	C96.550941,191.003418 87.798958,190.153641 79.045586,187.364365 
	C74.001747,185.757126 68.733765,184.795456 63.516209,183.810501 
	C59.712894,183.092514 56.253727,183.845306 53.939896,187.445908 
	C50.261112,193.170563 51.607910,198.200470 57.896683,200.729263 
	C73.309029,206.926727 89.375961,210.022095 105.983582,211.251923 
	C105.989914,264.183380 105.996246,317.114838 105.187057,370.342590 
z"/>
<path fill="#34176C" opacity="1.000000" stroke="none" 
	d="
M395.998627,189.021683 
	C403.374390,188.859146 410.812103,189.230988 418.108551,188.384628 
	C425.488098,187.528610 432.691742,185.255142 440.040405,184.001022 
	C445.668579,183.040512 448.761719,185.093704 449.975952,189.736679 
	C451.460876,195.414642 449.691895,199.248871 444.131866,201.117767 
	C428.820862,206.264297 413.259308,210.255844 396.021027,210.196106 
	C393.114624,210.108994 391.117371,210.080658 389.129150,209.931839 
	C380.208771,209.264084 379.002228,210.314499 378.702576,219.307709 
	C378.237518,233.265900 377.894775,247.228714 377.340668,261.183258 
	C376.615417,279.447815 375.734894,297.706177 374.774353,316.349701 
	C374.110260,329.529724 373.621674,342.328522 373.063171,355.124268 
	C372.798920,361.178497 370.299591,364.146851 365.459351,364.403503 
	C360.723480,364.654602 357.888153,361.810883 357.138275,355.788300 
	C356.337280,349.355225 355.746216,342.896210 354.967834,336.460083 
	C353.152100,321.446716 351.310547,306.436249 349.403412,291.434265 
	C349.007202,288.317688 347.932129,285.298645 344.104889,285.324646 
	C340.213409,285.351044 339.335114,288.519562 338.995911,291.577118 
	C336.946228,310.052185 334.355682,328.501678 333.294250,347.036957 
	C332.786224,355.908020 330.493164,363.313629 324.743683,369.682495 
	C320.629883,374.239471 316.503601,379.017395 311.563568,382.551483 
	C298.290833,392.046722 284.578400,400.927368 270.844208,410.362122 
	C267.410583,412.086670 264.173279,413.501099 260.579071,415.034454 
	C258.033234,415.769348 255.844345,416.385376 253.240448,417.011414 
	C251.442535,417.045868 250.059631,417.070374 248.331940,417.018921 
	C245.026108,416.011505 242.065063,415.080048 238.839264,413.856201 
	C237.304688,413.445038 236.034851,413.326263 234.844055,413.158203 
	C234.923096,413.108917 234.830704,413.270691 234.827438,412.908508 
	C231.236099,411.021545 227.648041,409.496765 224.105164,407.609131 
	C222.772095,406.174713 221.478378,404.966644 220.002533,404.052673 
	C205.104187,394.826355 190.856888,384.801514 179.022018,371.682434 
	C172.541122,364.498322 168.556244,356.612000 169.080383,346.499084 
	C170.049088,327.808014 168.036774,309.270508 164.956696,290.846252 
	C164.454086,287.839813 163.040405,284.776733 159.709900,285.496338 
	C157.801193,285.908722 155.366425,288.714294 155.024399,290.753723 
	C153.046173,302.549530 151.587814,314.433624 150.017960,326.296417 
	C148.621887,336.846100 147.384949,347.417358 145.916458,357.956604 
	C145.450012,361.304230 143.890350,364.053894 139.863586,363.970856 
	C135.854172,363.888184 132.723846,362.350342 131.543365,358.204132 
	C131.186050,356.949127 131.136963,355.590454 131.064240,354.272736 
	C129.642731,328.517609 128.238663,302.761505 126.898788,276.554199 
	C126.692085,265.452209 126.451599,254.800644 126.132912,244.151428 
	C125.854172,234.836914 125.535713,225.522964 125.138878,216.212860 
	C124.947098,211.713409 122.378403,209.671265 117.944519,209.857300 
	C113.955826,210.024643 109.967209,210.193558 105.978554,210.361771 
	C89.375961,210.022095 73.309029,206.926727 57.896683,200.729263 
	C51.607910,198.200470 50.261112,193.170563 53.939896,187.445908 
	C56.253727,183.845306 59.712894,183.092514 63.516209,183.810501 
	C68.733765,184.795456 74.001747,185.757126 79.045586,187.364365 
	C87.798958,190.153641 96.550941,191.003418 106.327820,188.815994 
	C113.411446,187.117065 119.705467,185.565674 126.419983,184.030365 
	C135.842896,183.480301 144.845322,182.914154 154.348984,182.316483 
	C153.679077,192.446365 153.489914,201.122025 152.441818,209.692642 
	C151.112946,220.558929 155.215836,230.020798 158.502441,240.123459 
	C170.364700,221.934433 165.288956,202.583527 163.856339,183.867630 
	C183.248672,179.549423 200.547119,186.428528 217.192902,190.545288 
	C220.802628,197.013672 224.143417,203.000122 228.096100,210.083054 
	C220.951126,210.083054 214.013947,210.286835 207.093033,210.038269 
	C194.798233,209.596680 193.931366,210.336365 194.063660,222.906586 
	C194.070496,223.557159 194.182175,224.206635 194.305862,225.485077 
	C203.049698,223.525436 211.621140,221.729202 220.127182,219.663727 
	C229.000031,217.509201 237.786758,218.011902 246.616394,219.500626 
	C246.263687,226.815247 245.930344,233.728195 245.591629,240.752716 
	C249.955811,240.752716 253.874329,240.752716 258.218262,240.752716 
	C257.583496,233.502823 256.969421,226.489365 256.371277,219.657852 
	C275.108398,215.121475 292.143341,222.020416 309.471039,226.141968 
	C311.427826,212.077576 309.314575,209.821533 296.152832,209.941635 
	C288.129974,210.014862 280.101562,209.474152 272.360046,209.218582 
	C275.442810,203.009506 278.033630,197.542587 280.903412,192.226273 
	C281.460907,191.193497 283.019653,190.378662 284.262177,190.089798 
	C293.314972,187.985306 302.446930,186.211731 311.471558,183.998260 
	C320.506470,181.782257 329.457642,182.743820 338.663300,183.321136 
	C338.035492,192.929947 337.693695,201.915604 336.801117,210.846207 
	C335.747375,221.389633 339.806061,230.614777 342.974060,240.150589 
	C354.830231,222.139435 349.732452,202.753143 348.162598,183.669418 
	C357.820557,183.669418 366.906372,183.669418 376.372223,183.810974 
	C383.167694,185.642242 389.583160,187.331955 395.998627,189.021683 
M200.085388,367.426239 
	C213.885345,379.790771 228.949707,390.080383 246.715729,396.677704 
	C246.715729,373.621704 246.715729,351.377594 246.715729,329.176819 
	C226.866638,329.176819 207.317566,329.176819 187.870651,329.176819 
	C185.879440,343.826599 187.110596,357.151001 200.085388,367.426239 
M294.994598,373.505646 
	C298.328247,370.499390 301.600098,367.421082 305.006836,364.500092 
	C316.228882,354.878113 315.923431,342.288666 314.483765,329.330627 
	C294.981232,329.330627 275.779266,329.330627 256.659729,329.330627 
	C256.659729,351.741669 256.659729,373.721069 256.659729,396.224213 
	C270.853699,390.621613 282.850677,382.638885 294.994598,373.505646 
M280.740845,271.998718 
	C270.916504,272.599091 263.856262,266.878601 256.588196,259.956696 
	C256.588196,280.506683 256.588196,299.543884 256.588196,318.589996 
	C276.184113,318.589996 295.505737,318.589996 314.936127,318.589996 
	C314.936127,304.211914 314.884796,290.244476 314.975250,276.277924 
	C314.995728,273.114075 313.943359,271.873657 310.624451,271.935455 
	C300.982574,272.114990 291.335175,271.998932 280.740845,271.998718 
M187.181931,310.437927 
	C187.181931,313.189606 187.181931,315.941315 187.181931,318.584534 
	C207.591141,318.584534 227.145828,318.584534 246.679993,318.584534 
	C246.679993,299.287262 246.679993,280.406921 246.679993,260.440857 
	C244.279373,262.507935 242.312225,263.752380 240.935074,265.469910 
	C236.379333,271.151642 230.542023,273.232941 223.380447,273.031006 
	C213.894623,272.763519 204.394928,272.988525 194.901199,273.000153 
	C187.322800,273.009430 187.180984,273.154846 187.181366,280.970612 
	C187.181839,290.464569 187.182007,299.958557 187.181931,310.437927 
M198.624237,245.994171 
	C197.022675,246.065048 195.421112,246.135910 193.508636,246.220535 
	C193.508636,249.948059 193.508636,253.349823 193.508636,256.798889 
	C201.755096,256.798889 209.809921,256.798889 217.851578,256.798889 
	C218.047699,246.991882 216.172394,245.141861 207.024216,245.679642 
	C204.536987,245.825867 202.044861,245.888779 198.624237,245.994171 
M289.942474,246.268372 
	C288.612396,249.159012 287.282349,252.049637 285.602661,255.700134 
	C294.986389,255.700134 302.691956,255.700134 310.391785,255.700134 
	C310.391785,252.327957 310.391785,249.274551 310.391785,246.003235 
	C303.598938,246.003235 297.153137,246.003235 289.942474,246.268372 
z"/>
<path fill="#F7F6F6" opacity="1.000000" stroke="none" 
	d="
M395.998749,188.551575 
	C389.583160,187.331955 383.167694,185.642242 376.371643,183.363846 
	C375.994476,140.810089 375.972321,98.844994 376.036621,56.880016 
	C376.043854,52.153599 376.539276,47.427929 376.827850,42.359043 
	C292.816162,42.359043 208.216461,42.359043 124.259697,42.359043 
	C124.858543,47.959000 125.905403,53.287231 125.922852,58.618828 
	C126.059647,100.416946 125.999153,142.215698 125.999489,184.014282 
	C119.705467,185.565674 113.411446,187.117065 106.698570,188.678436 
	C106.187447,187.360321 106.014915,186.032227 106.014503,184.704086 
	C105.999741,137.537979 105.983742,90.371857 106.016876,43.205776 
	C106.022560,35.115368 110.222725,31.014284 118.440285,31.012453 
	C206.772568,30.992773 295.104858,30.993334 383.437134,31.010717 
	C392.066986,31.012415 395.992188,35.136391 395.994232,44.083271 
	C396.005249,92.082672 395.999115,140.082077 395.998749,188.551575 
z"/>
<path fill="#161616" opacity="1.000000" stroke="none" 
	d="
M224.059967,407.971985 
	C227.648041,409.496765 231.236099,411.021545 234.441742,412.862701 
	C231.221329,412.580292 228.383347,411.981506 225.538681,411.381287 
	C224.692154,416.990356 224.997726,417.208679 234.765015,417.975861 
	C234.765015,416.374847 234.765015,414.791138 234.765015,413.207458 
	C236.034851,413.326263 237.304688,413.445038 238.780472,414.286987 
	C239.058670,416.371887 239.130920,417.733612 239.201965,419.072418 
	C241.924591,419.218903 244.072357,419.581116 246.147202,419.333099 
	C247.066437,419.223206 247.838089,417.878845 248.676727,417.094849 
	C250.059631,417.070374 251.442535,417.045868 253.215225,417.470367 
	C255.843582,422.845306 259.804932,418.888733 262.758881,420.126221 
	C263.124542,419.771271 263.490173,419.416351 263.855835,419.061401 
	C262.882538,417.679443 261.909271,416.297516 260.936005,414.915558 
	C264.173279,413.501099 267.410583,412.086670 271.196777,410.513611 
	C272.330688,410.586395 272.958252,411.092590 273.494476,411.009460 
	C292.436798,408.072266 310.403259,402.601013 326.727417,392.052185 
	C334.484619,387.039429 342.847076,382.834259 351.285217,379.041534 
	C359.283844,375.446442 367.739532,372.868256 376.368530,369.856018 
	C383.149933,368.363007 389.557007,366.856903 395.964081,365.350800 
	C410.038574,364.605804 424.113098,363.860809 438.663452,363.090607 
	C438.663452,384.261993 438.663452,403.983063 438.663452,423.292450 
	C430.551147,423.292450 422.272003,422.869629 414.048615,423.367737 
	C383.303925,425.230072 354.530884,433.987762 328.525330,450.464996 
	C289.405273,475.251678 248.337616,476.617126 205.901474,461.636353 
	C196.114395,458.181305 186.439270,453.377625 177.993179,447.388611 
	C164.076935,437.520691 148.812271,432.250916 132.235214,430.571594 
	C113.577560,428.681519 94.983833,429.440857 76.940498,435.315765 
	C72.389236,436.797668 68.013443,438.818481 63.018684,440.805817 
	C63.018684,431.454651 63.018639,422.373260 63.018692,413.291870 
	C63.018745,404.126617 63.226044,394.954285 62.913147,385.799744 
	C62.794350,382.324036 64.186264,380.858856 67.038521,379.502136 
	C79.128296,373.751526 92.045174,371.616943 106.055046,370.287720 
	C112.948334,370.165680 118.973633,370.098480 125.402664,370.172546 
	C128.285782,370.575317 130.771255,370.789337 133.243561,371.106232 
	C146.013824,372.742981 158.817474,375.005951 169.511963,382.478302 
	C186.282532,394.196106 204.314987,402.815430 224.059967,407.971985 
M396.843262,413.155151 
	C408.515686,412.248383 420.188141,411.341644 432.169312,410.410919 
	C432.169312,399.825439 432.285370,389.189178 432.006317,378.563263 
	C431.975311,377.380524 429.718353,375.295807 428.455017,375.265961 
	C421.660980,375.105164 414.854645,375.462067 407.529327,375.404480 
	C407.016205,375.592834 406.503113,375.781189 405.139069,375.854340 
	C403.441223,376.068726 401.743378,376.283112 399.496552,376.332123 
	C398.995819,376.549072 398.495087,376.765991 397.320099,376.889893 
	C396.890991,377.024353 396.461853,377.158813 395.226257,377.133667 
	C393.262573,377.462769 391.310242,377.931793 389.332886,378.092773 
	C384.789337,378.462738 383.100098,380.695343 383.369476,385.320221 
	C383.736359,391.619141 383.461212,397.955414 383.461304,404.275696 
	C383.461365,407.838257 383.461334,411.400787 383.461334,415.858917 
	C388.372162,414.752167 392.184082,413.893066 396.843262,413.155151 
M105.126534,382.091370 
	C93.245911,382.654388 81.707634,384.942291 70.709633,389.477692 
	C68.851318,390.244019 66.287804,392.367737 66.231346,393.942505 
	C65.839684,404.866730 66.024765,415.811646 66.024765,425.832123 
	C79.546799,423.172577 92.771881,420.571411 106.853889,418.175323 
	C111.973381,419.027069 113.447746,416.763641 113.210510,411.794800 
	C112.831886,403.864838 113.122360,395.903229 113.119286,387.954987 
	C113.116661,381.180786 113.057564,381.138947 105.126534,382.091370 
M338.231171,434.654297 
	C337.120728,435.697876 335.839203,436.613922 334.942719,437.816925 
	C333.798370,439.352448 332.964996,441.119690 331.997559,442.787048 
	C332.412933,443.081299 332.828278,443.375580 333.243652,443.669861 
	C334.996033,442.844452 336.907623,442.238464 338.447937,441.120789 
	C339.580048,440.299316 341.039307,438.687988 340.885345,437.645325 
	C340.687927,436.308044 339.018982,435.188019 338.139893,433.274506 
	C347.699249,429.201508 357.218140,425.030090 366.828796,421.082031 
	C377.339783,416.764160 375.815247,419.765411 375.906799,407.872772 
	C375.971710,399.443420 375.919373,391.013184 375.919373,382.661407 
	C374.755951,382.442810 374.187866,382.137695 373.811340,382.294037 
	C360.643066,387.761719 347.464447,393.207520 334.390289,398.893372 
	C333.263031,399.383606 332.219147,401.492584 332.195831,402.867584 
	C332.015686,413.500702 332.096558,424.138245 332.096558,435.414948 
	C334.418121,434.819366 336.250946,434.349182 338.231171,434.654297 
M122.265862,382.332581 
	C121.944443,382.886078 121.346573,383.437561 121.342567,383.993347 
	C121.267555,394.388824 121.220207,404.785217 121.322334,415.179901 
	C121.330811,416.042725 122.449829,416.894623 123.875168,418.099518 
	C138.987610,418.976074 153.608154,422.052094 167.986893,428.799316 
	C167.986893,417.091827 168.117432,406.294647 167.836029,395.508209 
	C167.797043,394.013458 166.033646,391.903473 164.542343,391.210175 
	C151.415009,385.107422 137.609497,381.895477 122.265862,382.332581 
M225.421341,420.300964 
	C225.187912,420.731445 224.753586,421.160461 224.750488,421.592590 
	C224.676346,431.910858 224.517395,442.232727 224.773804,452.543976 
	C224.806793,453.870422 226.954102,456.172577 228.265289,456.280457 
	C241.984131,457.408905 255.729736,458.225128 269.474487,459.013824 
	C272.021484,459.159943 273.314301,457.848877 273.277832,455.013275 
	C273.153778,445.358673 273.156464,435.700653 273.269409,426.045807 
	C273.307953,422.750275 271.789734,422.110443 268.905487,422.460022 
	C265.444031,422.879578 261.911591,423.427704 258.469269,423.159149 
	C247.727173,422.321106 237.013092,421.124176 225.421341,420.300964 
M285.210297,456.794220 
	C297.968964,454.104218 310.138763,449.802795 321.341797,443.080933 
	C323.158356,441.990997 325.527161,439.853851 325.588776,438.127441 
	C325.976990,427.256653 325.785400,416.365173 325.785400,405.409576 
	C324.678345,405.409576 324.093903,405.227081 323.741272,405.435974 
	C311.555756,412.654327 298.559174,417.689667 284.661682,420.538086 
	C283.317627,420.813599 281.502869,423.226227 281.458984,424.693207 
	C281.170990,434.321747 281.207123,443.965637 281.445068,453.596893 
	C281.473358,454.741730 283.364288,455.840576 285.210297,456.794220 
M180.811310,437.692169 
	C190.689667,442.365631 200.466751,447.272186 210.484131,451.625763 
	C216.560852,454.266724 216.913879,453.760742 216.917709,447.364166 
	C216.922607,439.219452 216.729019,431.068390 217.000366,422.932709 
	C217.132187,418.980103 215.698242,417.284485 212.032303,415.691406 
	C200.689453,410.762207 189.623535,405.195557 178.451645,399.873138 
	C177.348679,399.347687 176.256165,398.800293 174.354340,397.869293 
	C174.354340,408.162506 174.631958,417.600525 174.242294,427.010864 
	C174.034012,432.040527 175.653427,435.326935 180.811310,437.692169 
M260.932190,467.690613 
	C261.960602,466.267273 262.989014,464.843933 264.643646,462.553925 
	C259.837555,462.553925 256.936615,462.553925 253.853348,462.553925 
	C252.131622,469.322601 257.019287,467.402283 260.932190,467.690613 
M299.568939,461.127136 
	C302.608337,460.050110 306.450104,459.539368 304.214294,454.653992 
	C294.773560,456.799622 294.707397,456.858185 296.002563,462.149902 
	C296.943024,461.876862 297.874298,461.606445 299.568939,461.127136 
M430.094574,419.605316 
	C432.329407,419.824493 434.564240,420.043671 437.156281,420.297852 
	C437.000000,418.233490 436.892822,416.817291 436.773804,415.244843 
	C433.438477,414.896606 430.409790,414.580383 427.381104,414.264130 
	C427.081116,414.675934 426.781097,415.087738 426.481110,415.499573 
	C427.399261,416.818115 428.317413,418.136688 430.094574,419.605316 
M365.988800,424.625427 
	C357.424347,426.417725 356.735657,427.069122 358.291779,432.408813 
	C361.006958,429.892700 367.392487,432.064148 365.988800,424.625427 
M431.492279,367.091309 
	C430.086578,367.091309 428.680847,367.091309 426.929321,367.091309 
	C427.169464,369.154175 427.330719,370.539490 427.494354,371.944946 
	C429.407227,372.073242 430.888885,372.164978 432.369263,372.274139 
	C433.793793,372.379211 435.217010,372.502289 436.869934,372.635986 
	C436.869934,370.800751 436.869934,369.370148 436.869934,367.660675 
	C435.274780,367.475403 433.829193,367.307495 431.492279,367.091309 
M82.710014,377.236572 
	C79.116356,377.796661 78.076195,379.729889 79.492569,383.054047 
	C89.231255,381.361786 89.231255,381.361786 87.758255,376.138611 
	C86.349060,376.455292 84.926132,376.775055 82.710014,377.236572 
M95.656120,380.043945 
	C98.043350,379.668823 100.430580,379.293701 103.154465,378.865692 
	C103.045563,377.148315 102.949631,375.635406 102.837669,373.869751 
	C100.169220,374.234772 98.037224,374.387085 95.970711,374.838867 
	C91.992599,375.708496 92.624359,377.750397 95.656120,380.043945 
M392.484314,369.305206 
	C391.017822,369.606171 389.562866,369.993103 388.082581,370.191040 
	C384.525543,370.666687 383.099457,372.350342 384.651855,376.079407 
	C386.468964,375.741241 388.235229,375.344788 390.021942,375.094330 
	C393.597290,374.593048 395.108429,372.979828 392.484314,369.305206 
M130.411987,426.860870 
	C131.064011,425.368164 131.716034,423.875458 132.698242,421.626831 
	C128.366440,421.626831 125.311676,421.626831 121.961731,421.626831 
	C122.072258,423.297485 122.165871,424.712585 122.253006,426.029755 
	C124.943481,426.290771 127.254356,426.514954 130.411987,426.860870 
M136.304672,427.064545 
	C139.257080,427.753998 142.209473,428.443420 145.422241,429.193665 
	C146.418793,420.583466 139.405457,424.536469 136.216400,421.658447 
	C136.088928,423.769653 136.011993,425.043884 136.304672,427.064545 
M282.686737,460.352478 
	C282.430481,461.870972 282.174194,463.389435 281.900696,465.009979 
	C291.390167,464.573608 292.437317,463.810852 291.154968,458.446106 
	C288.602142,459.000977 286.044434,459.556885 282.686737,460.352478 
M234.848419,464.945801 
	C235.711868,456.544525 228.266632,461.854645 225.310913,457.678131 
	C225.310913,460.874237 225.310913,462.423279 225.310913,464.136505 
	C228.498276,464.645752 231.429092,465.114014 234.848419,464.945801 
M247.102859,467.212677 
	C247.755905,465.761749 248.408951,464.310822 249.284210,462.366150 
	C245.107086,461.944183 242.212646,461.651794 239.129608,461.340363 
	C239.129608,463.301208 239.129608,464.732544 239.129608,466.419617 
	C241.629044,466.690277 243.928650,466.939270 247.102859,467.212677 
M158.526825,427.924591 
	C155.917328,427.026306 153.307846,426.128021 150.637283,425.208710 
	C149.828842,430.897064 150.083359,431.109985 159.631195,432.816498 
	C159.440140,431.256989 159.266754,429.841797 158.526825,427.924591 
M393.775665,417.767944 
	C390.685364,417.767944 387.595062,417.767944 384.323761,417.767944 
	C384.323761,420.245605 384.323761,421.647736 384.323761,424.570465 
	C387.512573,421.247833 393.283661,425.351746 393.775665,417.767944 
M287.164581,411.817444 
	C285.573181,412.132141 283.981812,412.446838 282.256714,412.787964 
	C282.256714,414.607361 282.256714,416.203888 282.256714,417.916290 
	C285.511749,417.198700 288.523346,416.534790 291.506622,415.877106 
	C292.383240,412.412964 292.096161,410.274689 287.164581,411.817444 
M272.218994,461.766205 
	C268.594849,461.664886 267.121277,463.154602 268.614532,467.214142 
	C271.586517,466.889252 274.608612,466.558899 277.726807,466.218048 
	C277.726807,464.444153 277.726807,462.902130 277.726807,461.173645 
	C275.958160,461.351807 274.512512,461.497406 272.218994,461.766205 
M145.519775,380.436279 
	C145.764969,372.785828 139.464325,377.025665 136.144119,374.250458 
	C136.144119,376.821472 136.144119,378.234985 136.144119,380.025116 
	C139.170547,380.381500 142.069626,380.722900 145.519775,380.436279 
M100.790192,421.671417 
	C99.651413,421.846375 98.499817,422.228638 97.376160,422.159119 
	C93.292992,421.906494 92.593468,423.793457 93.896576,427.497955 
	C96.933746,427.230927 99.839844,426.975433 103.922943,426.616455 
	C102.931595,424.429596 102.263252,422.955292 100.790192,421.671417 
M88.494644,424.711731 
	C85.431023,424.877899 82.367401,425.044067 79.187103,425.216553 
	C79.187103,427.423584 79.187103,428.860291 79.187103,431.164154 
	C82.365189,428.572845 88.011360,431.938965 88.494644,424.711731 
M418.528381,419.245087 
	C422.727661,419.775970 422.666840,417.511475 421.746307,414.433105 
	C418.668243,414.433105 415.750092,414.433105 412.542877,414.433105 
	C412.542877,416.028107 412.542877,417.401978 412.542877,419.246155 
	C414.348450,419.246155 415.970032,419.246155 418.528381,419.245087 
M123.689049,373.720215 
	C122.987198,375.134094 122.285339,376.548004 121.180084,378.774536 
	C125.602097,378.774536 128.620544,378.774536 131.922974,378.774536 
	C131.853348,377.295654 131.788574,375.919922 131.713303,374.321014 
	C129.137543,374.122101 126.875198,373.947388 123.689049,373.720215 
M268.105591,415.828796 
	C268.187469,416.939301 268.269318,418.049805 268.348816,419.128143 
	C278.404938,419.411438 278.404938,419.411438 277.473145,413.560883 
	C274.430817,414.024292 271.382355,414.488647 268.105591,415.828796 
M365.965546,381.610077 
	C366.066437,380.118896 366.167358,378.627686 366.338776,376.095093 
	C362.457642,378.950409 356.137970,377.358276 357.758423,384.796722 
	C360.455688,383.825439 362.909729,382.941742 365.965546,381.610077 
M422.026520,367.474304 
	C420.128113,367.227783 418.236023,366.900391 416.329987,366.751495 
	C412.288269,366.435730 411.400696,368.289642 412.861145,371.888794 
	C415.182434,371.888794 417.442322,372.284393 419.442963,371.735382 
	C420.580444,371.423218 421.293915,369.566132 422.026520,367.474304 
M114.376587,426.225128 
	C118.604721,426.707306 118.220818,424.272095 117.612419,421.501587 
	C114.316025,421.501587 111.293716,421.501587 107.977646,421.501587 
	C108.074997,423.247375 108.152092,424.629883 108.241425,426.231903 
	C110.204620,426.231903 111.822906,426.231903 114.376587,426.225128 
M150.680588,378.228760 
	C149.856842,383.109772 151.655136,384.514069 159.351517,384.849915 
	C160.447815,378.196625 154.536026,379.762329 150.680588,378.228760 
M301.258423,413.045441 
	C304.244629,412.158722 305.794006,410.545837 304.226654,407.308289 
	C295.734558,408.643555 295.113861,409.137604 295.760620,414.454681 
	C297.368591,414.043182 298.917786,413.646698 301.258423,413.045441 
M352.418610,434.527161 
	C352.677216,432.987152 352.935822,431.447144 353.231110,429.688873 
	C344.338501,432.161285 343.771790,432.733978 344.948090,437.929993 
	C347.243408,436.944397 349.505219,435.973236 352.418610,434.527161 
M406.738281,372.136658 
	C406.926300,370.648346 407.114349,369.160034 407.311890,367.596588 
	C397.237732,367.804962 396.963928,367.994171 398.645081,373.388580 
	C401.040863,373.080414 403.468658,372.768158 406.738281,372.136658 
M309.138336,453.012878 
	C309.138336,454.351257 309.138336,455.689636 309.138336,457.911621 
	C312.734741,454.807709 318.984161,455.734344 317.159210,448.483459 
	C314.398651,449.854309 311.942413,451.074066 309.138336,453.012878 
M374.518585,373.854828 
	C370.590546,374.353760 370.549072,376.750397 371.573761,380.122894 
	C374.643341,377.710052 381.571564,380.121735 379.775726,372.442169 
	C378.165710,372.843628 376.741974,373.198639 374.518585,373.854828 
M407.335938,417.561340 
	C405.933899,412.719238 402.335571,415.604340 399.876770,415.856812 
	C398.896088,415.957520 398.198303,418.813446 397.371704,420.415131 
	C397.833374,420.754974 398.295013,421.094788 398.756653,421.434631 
	C401.610138,420.452026 404.463654,419.469391 407.335938,417.561340 
M72.509003,428.095001 
	C69.531479,429.475067 64.940674,429.594879 67.026382,435.377808 
	C69.330925,434.477875 71.595978,433.909912 73.475044,432.728180 
	C74.436752,432.123383 74.856606,430.457581 75.177414,429.184662 
	C75.250214,428.895844 73.896484,428.247437 72.509003,428.095001 
M214.883484,413.669922 
	C216.766830,414.196045 218.650192,414.722168 220.560699,415.255890 
	C221.330292,409.793549 220.841629,409.394928 210.964188,408.183594 
	C212.309387,410.392761 213.208008,411.868561 214.883484,413.669922 
M217.432144,462.030151 
	C218.492416,462.272705 219.552689,462.515259 220.774033,462.794678 
	C222.354584,454.883667 215.508911,457.546997 212.616577,455.328735 
	C210.599487,459.916443 213.231735,461.122772 217.432144,462.030151 
M373.961151,421.436493 
	C370.678375,422.243103 370.539978,424.414307 371.528015,427.349518 
	C374.376282,426.486908 377.157318,425.644653 380.135773,424.742615 
	C380.040161,423.094421 379.957184,421.664246 379.858032,419.955505 
	C377.918182,420.447174 376.337524,420.847809 373.961151,421.436493 
M71.614372,380.898590 
	C68.528770,382.038483 65.031990,382.889954 66.991791,387.851776 
	C69.307968,386.941193 71.764107,386.363953 73.717155,385.042938 
	C74.685028,384.388275 74.727280,382.365173 75.188301,380.961182 
	C74.238792,380.820251 73.289291,380.679321 71.614372,380.898590 
M317.667450,404.361664 
	C317.492310,403.333252 317.317169,402.304840 317.124573,401.174011 
	C307.390778,405.472961 308.643036,404.504578 309.660156,410.059692 
	C312.455933,408.301605 315.005890,406.698090 317.667450,404.361664 
M353.081787,384.574524 
	C352.974457,383.797821 352.867126,383.021149 352.753693,382.200439 
	C343.768860,385.216492 343.760529,385.225098 345.267914,390.959564 
	C348.025146,388.986603 350.550049,387.179871 353.081787,384.574524 
M324.927673,449.141296 
	C327.554779,447.479919 330.573700,446.017181 328.376190,441.376190 
	C325.829224,444.335602 320.052063,444.299164 321.970367,450.725098 
	C322.921387,450.236938 323.625183,449.875732 324.927673,449.141296 
M164.330719,383.281036 
	C162.117844,390.291687 168.838348,389.051178 171.544403,392.192383 
	C173.223801,385.591858 168.090607,385.291534 164.330719,383.281036 
M204.182037,452.342255 
	C202.525833,451.796509 200.869629,451.250763 199.129822,450.677460 
	C198.639923,455.918640 199.977982,457.048004 208.496902,457.957214 
	C206.974930,455.689178 205.969238,454.190491 204.182037,452.342255 
M163.877228,433.211334 
	C166.196854,435.417603 168.516479,437.623871 171.706863,440.658356 
	C171.843185,437.976685 172.104156,436.952209 171.904007,436.027557 
	C171.241623,432.967072 165.847931,430.578491 163.877228,433.211334 
M199.349136,403.315002 
	C196.615250,411.097870 204.292953,408.174561 206.664658,411.426880 
	C208.942215,404.169647 202.935577,405.179810 199.349136,403.315002 
M185.961700,398.578827 
	C186.037430,403.864655 190.757080,403.227356 193.764557,405.354980 
	C194.082306,400.031616 191.154510,397.418945 185.961700,398.578827 
M175.259995,437.832855 
	C173.498398,444.284241 179.365875,444.033569 182.398315,446.983368 
	C184.094406,440.489258 178.962799,440.019165 175.259995,437.832855 
M182.568115,398.746429 
	C184.263794,392.441711 178.364563,392.559143 175.419754,389.740051 
	C173.491180,396.114319 178.891281,396.540833 182.568115,398.746429 
M341.041138,391.105988 
	C340.961456,390.017212 340.881775,388.928406 340.754486,387.189484 
	C337.532135,389.994049 331.307617,389.117310 333.099396,396.455902 
	C335.887360,394.823090 338.378448,393.364136 341.041138,391.105988 
M188.705521,445.296051 
	C187.972183,445.005585 187.238861,444.715149 186.244736,444.321381 
	C184.842941,450.984070 190.354889,450.672363 193.559982,452.711945 
	C195.521027,448.110199 192.235962,447.057922 188.705521,445.296051 
M116.914764,377.422485 
	C116.480484,369.928711 110.968391,376.312897 108.151787,374.563354 
	C108.635841,376.224335 109.547073,377.621185 110.736031,377.922607 
	C112.442215,378.355194 114.350899,377.989014 116.914764,377.422485 
M328.001190,394.455444 
	C325.474091,396.811096 320.097870,397.170166 322.140808,403.194214 
	C325.151428,400.613892 330.689606,400.507355 328.001190,394.455444 
z"/>
<path fill="#F6F6F6" opacity="1.000000" stroke="none" 
	d="
M124.998932,370.031281 
	C118.973633,370.098480 112.948334,370.165680 106.462807,370.139587 
	C105.996246,317.114838 105.989914,264.183380 105.981064,210.806854 
	C109.967209,210.193558 113.955826,210.024643 117.944519,209.857300 
	C122.378403,209.671265 124.947098,211.713409 125.138878,216.212860 
	C125.535713,225.522964 125.854172,234.836914 126.132912,244.151428 
	C126.451599,254.800644 126.692085,265.452209 126.515854,276.660095 
	C125.710205,279.075745 125.050156,280.933350 125.045959,282.792480 
	C124.980347,311.871979 124.999390,340.951660 124.998932,370.031281 
z"/>
<path fill="#F5F5F5" opacity="1.000000" stroke="none" 
	d="
M395.974091,364.858032 
	C389.557007,366.856903 383.149933,368.363007 376.368164,369.397552 
	C375.996490,352.981262 376.032166,337.036438 375.954987,321.092133 
	C375.946716,319.382202 375.281616,317.675446 374.921173,315.967224 
	C375.734894,297.706177 376.615417,279.447815 377.340668,261.183258 
	C377.894775,247.228714 378.237518,233.265900 378.702576,219.307709 
	C379.002228,210.314499 380.208771,209.264084 389.129150,209.931839 
	C391.117371,210.080658 393.114624,210.108994 395.566101,210.289276 
	C396.011017,261.712280 395.997559,313.038788 395.974091,364.858032 
z"/>
<path fill="#FDFDFE" opacity="1.000000" stroke="none" 
	d="
M126.419983,184.030365 
	C125.999153,142.215698 126.059647,100.416946 125.922852,58.618828 
	C125.905403,53.287231 124.858543,47.959000 124.259697,42.359043 
	C208.216461,42.359043 292.816162,42.359043 376.827850,42.359043 
	C376.539276,47.427929 376.043854,52.153599 376.036621,56.880016 
	C375.972321,98.844994 375.994476,140.810089 375.991638,183.222290 
	C366.906372,183.669418 357.820557,183.669418 348.162598,183.669418 
	C349.732452,202.753143 354.830231,222.139435 342.974060,240.150589 
	C339.806061,230.614777 335.747375,221.389633 336.801117,210.846207 
	C337.693695,201.915604 338.035492,192.929947 338.663300,183.321136 
	C329.457642,182.743820 320.506470,181.782257 311.471558,183.998260 
	C302.446930,186.211731 293.314972,187.985306 284.262177,190.089798 
	C283.019653,190.378662 281.460907,191.193497 280.903412,192.226273 
	C278.033630,197.542587 275.442810,203.009506 272.360046,209.218582 
	C280.101562,209.474152 288.129974,210.014862 296.152832,209.941635 
	C309.314575,209.821533 311.427826,212.077576 309.471039,226.141968 
	C292.143341,222.020416 275.108398,215.121475 256.371277,219.657852 
	C256.969421,226.489365 257.583496,233.502823 258.218262,240.752716 
	C253.874329,240.752716 249.955811,240.752716 245.591629,240.752716 
	C245.930344,233.728195 246.263687,226.815247 246.616394,219.500626 
	C237.786758,218.011902 229.000031,217.509201 220.127182,219.663727 
	C211.621140,221.729202 203.049698,223.525436 194.305862,225.485077 
	C194.182175,224.206635 194.070496,223.557159 194.063660,222.906586 
	C193.931366,210.336365 194.798233,209.596680 207.093033,210.038269 
	C214.013947,210.286835 220.951126,210.083054 228.096100,210.083054 
	C224.143417,203.000122 220.802628,197.013672 217.192902,190.545288 
	C200.547119,186.428528 183.248672,179.549423 163.856339,183.867630 
	C165.288956,202.583527 170.364700,221.934433 158.502441,240.123459 
	C155.215836,230.020798 151.112946,220.558929 152.441818,209.692642 
	C153.489914,201.122025 153.679077,192.446365 154.348984,182.316483 
	C144.845322,182.914154 135.842896,183.480301 126.419983,184.030365 
M195.689117,103.425446 
	C195.532303,103.971161 195.375488,104.516876 194.931213,105.680710 
	C194.346375,107.131165 193.761551,108.581612 192.745636,110.450325 
	C192.573334,110.988663 192.401016,111.527008 191.948563,112.721046 
	C190.990494,115.152061 190.032425,117.583076 188.545609,120.301155 
	C188.339279,120.853622 188.132935,121.406082 187.382065,122.248192 
	C187.384186,122.931488 187.094528,123.898483 187.437073,124.250801 
	C189.284973,126.151398 191.392807,127.801216 193.220840,129.718796 
	C198.556870,135.316223 205.373001,137.524277 212.265137,134.899246 
	C218.465714,132.537582 223.832809,127.987587 229.567551,124.402832 
	C229.371216,123.907333 229.174896,123.411827 228.978561,122.916321 
	C228.177109,122.593483 227.375671,122.270645 226.512054,121.899139 
	C226.512054,121.899139 226.581863,121.869507 226.865723,120.998253 
	C226.178055,119.351189 225.490387,117.704124 224.925629,115.458237 
	C224.570084,114.982384 224.214554,114.506538 223.865677,113.386139 
	C223.497665,112.613098 223.129654,111.840057 222.851578,110.477776 
	C222.510742,109.997330 222.169922,109.516876 221.818787,108.354172 
	C221.142609,106.922836 220.466446,105.491493 219.899979,103.465813 
	C219.549606,102.988052 219.199249,102.510284 218.844406,101.348770 
	C218.170242,99.916565 217.496078,98.484360 216.949478,96.453484 
	C216.591248,95.978088 216.233017,95.502693 215.884048,94.382515 
	C215.515854,93.609344 215.147659,92.836166 214.860107,91.472557 
	C214.518524,90.993423 214.176941,90.514282 213.821182,89.353310 
	C213.148987,87.921150 212.476791,86.488983 211.906937,84.461914 
	C211.557541,83.984764 211.208145,83.507622 210.859879,82.372482 
	C210.267426,81.233047 209.674988,80.093605 209.133301,78.063637 
	C209.115234,75.392120 209.097168,72.720604 210.001724,70.151550 
	C223.209534,70.151550 236.417343,70.151550 249.586670,70.151550 
	C249.586670,98.859177 249.586670,126.725220 249.586670,154.800613 
	C246.905533,154.931793 244.450531,155.051926 241.475418,155.101303 
	C241.383057,155.397614 241.290695,155.693909 241.059036,156.742584 
	C241.158035,158.129303 241.257034,159.516022 241.351349,160.902893 
	C228.715363,166.085663 222.531265,177.000641 224.943054,189.863739 
	C227.058197,201.144745 237.353439,209.806564 248.994492,210.099213 
	C261.176758,210.405472 271.632751,202.346634 274.550751,190.402054 
	C277.737122,177.358994 271.142914,166.806961 254.379562,159.051666 
	C257.024994,159.051666 258.881226,159.051666 261.048950,159.051666 
	C260.881805,157.445724 260.757446,156.250748 260.612823,154.861252 
	C257.761810,154.861252 255.295349,154.861252 252.661972,154.861252 
	C252.661972,126.574120 252.661972,98.526192 252.661972,69.788124 
	C267.928253,69.788124 282.843597,69.788124 297.758972,69.788124 
	C297.758331,69.305222 297.757660,68.822319 297.757019,68.339417 
	C282.777924,68.339417 267.798828,68.339417 253.097519,68.339417 
	C251.657822,64.179390 253.863983,60.024456 249.938080,57.066097 
	C249.938080,60.611454 249.938080,64.156815 249.938080,68.464348 
	C234.590851,68.464348 219.811859,68.464348 204.478882,68.473732 
	C204.654770,68.953293 204.830658,69.432854 205.444778,70.111633 
	C205.444778,70.111633 205.922073,70.049080 206.271606,70.890305 
	C206.242950,73.612823 206.214294,76.335342 205.871536,79.663109 
	C205.294769,81.117386 204.717987,82.571655 203.686829,84.425087 
	C203.524979,84.969566 203.363129,85.514038 202.918488,86.678215 
	C202.334244,88.128807 201.750000,89.579399 200.741196,91.450584 
	C200.567429,91.988205 200.393661,92.525833 199.964767,93.655510 
	C199.684631,94.444771 199.404495,95.234032 198.640427,96.398048 
	C198.485703,96.949356 198.330978,97.500656 197.872101,98.662331 
	C197.296890,100.117210 196.721695,101.572083 195.689117,103.425446 
M274.777771,121.803436 
	C274.582306,122.689972 273.918152,124.007919 274.270264,124.390465 
	C276.060699,126.335625 278.406799,127.808716 280.024048,129.866943 
	C286.249603,137.789978 302.803101,137.590851 308.970795,129.656326 
	C310.841095,127.250198 313.431854,125.404068 315.136627,123.818565 
	C311.592346,115.682404 308.189178,107.870186 304.878998,99.468239 
	C304.536346,98.989868 304.193665,98.511490 303.839905,97.349403 
	C303.159149,95.917938 302.478424,94.486473 301.914429,92.463539 
	C301.570374,91.984497 301.226318,91.505463 300.855682,90.295006 
	C298.566589,83.966057 296.277466,77.637100 294.189209,71.863426 
	C292.672913,76.673218 291.425232,81.552521 289.605682,86.208321 
	C285.955963,95.547066 281.993774,104.763702 277.714905,114.437775 
	C277.549316,114.978195 277.383698,115.518608 276.845093,116.868355 
	C276.362152,118.539154 275.879181,120.209953 275.467285,121.902573 
	C275.467285,121.902573 275.415070,121.956314 274.777771,121.803436 
M167.553513,125.797119 
	C156.007782,120.962868 143.595367,124.356735 136.540085,134.276962 
	C129.849060,143.685028 130.577988,157.053802 138.250916,165.654251 
	C146.263870,174.635834 159.039734,176.913330 169.568985,170.937454 
	C177.860626,166.231522 182.366028,158.864258 182.545242,149.345016 
	C182.745529,138.705917 177.577301,131.021744 167.553513,125.797119 
M356.624298,169.199219 
	C365.488129,162.300095 369.169647,152.348282 366.245972,142.343796 
	C363.277130,132.184906 356.578613,125.740982 346.041840,124.018150 
	C334.825500,122.184212 325.282990,126.825256 319.759644,136.230194 
	C314.055115,145.943619 315.707672,158.870743 323.637970,166.568069 
	C332.778168,175.439774 344.571228,176.563766 356.624298,169.199219 
z"/>
<path fill="#FBFBFC" opacity="1.000000" stroke="none" 
	d="
M374.774353,316.349701 
	C375.281616,317.675446 375.946716,319.382202 375.954987,321.092133 
	C376.032166,337.036438 375.996490,352.981262 375.993835,369.384399 
	C367.739532,372.868256 359.283844,375.446442 351.285217,379.041534 
	C342.847076,382.834259 334.484619,387.039429 326.727417,392.052185 
	C310.403259,402.601013 292.436798,408.072266 273.494476,411.009460 
	C272.958252,411.092590 272.330688,410.586395 271.393127,410.203552 
	C284.578400,400.927368 298.290833,392.046722 311.563568,382.551483 
	C316.503601,379.017395 320.629883,374.239471 324.743683,369.682495 
	C330.493164,363.313629 332.786224,355.908020 333.294250,347.036957 
	C334.355682,328.501678 336.946228,310.052185 338.995911,291.577118 
	C339.335114,288.519562 340.213409,285.351044 344.104889,285.324646 
	C347.932129,285.298645 349.007202,288.317688 349.403412,291.434265 
	C351.310547,306.436249 353.152100,321.446716 354.967834,336.460083 
	C355.746216,342.896210 356.337280,349.355225 357.138275,355.788300 
	C357.888153,361.810883 360.723480,364.654602 365.459351,364.403503 
	C370.299591,364.146851 372.798920,361.178497 373.063171,355.124268 
	C373.621674,342.328522 374.110260,329.529724 374.774353,316.349701 
z"/>
<path fill="#EBE9F6" opacity="1.000000" stroke="none" 
	d="
M199.825195,367.182495 
	C187.110596,357.151001 185.879440,343.826599 187.870651,329.176819 
	C207.317566,329.176819 226.866638,329.176819 246.715729,329.176819 
	C246.715729,351.377594 246.715729,373.621704 246.715729,396.677704 
	C228.949707,390.080383 213.885345,379.790771 199.825195,367.182495 
z"/>
<path fill="#9E4D1C" opacity="1.000000" stroke="none" 
	d="
M294.720215,373.736084 
	C282.850677,382.638885 270.853699,390.621613 256.659729,396.224213 
	C256.659729,373.721069 256.659729,351.741669 256.659729,329.330627 
	C275.779266,329.330627 294.981232,329.330627 314.483765,329.330627 
	C315.923431,342.288666 316.228882,354.878113 305.006836,364.500092 
	C301.600098,367.421082 298.328247,370.499390 294.720215,373.736084 
z"/>
<path fill="#FBFAFB" opacity="1.000000" stroke="none" 
	d="
M125.402664,370.172546 
	C124.999390,340.951660 124.980347,311.871979 125.045959,282.792480 
	C125.050156,280.933350 125.710205,279.075745 126.448090,277.111511 
	C128.238663,302.761505 129.642731,328.517609 131.064240,354.272736 
	C131.136963,355.590454 131.186050,356.949127 131.543365,358.204132 
	C132.723846,362.350342 135.854172,363.888184 139.863586,363.970856 
	C143.890350,364.053894 145.450012,361.304230 145.916458,357.956604 
	C147.384949,347.417358 148.621887,336.846100 150.017960,326.296417 
	C151.587814,314.433624 153.046173,302.549530 155.024399,290.753723 
	C155.366425,288.714294 157.801193,285.908722 159.709900,285.496338 
	C163.040405,284.776733 164.454086,287.839813 164.956696,290.846252 
	C168.036774,309.270508 170.049088,327.808014 169.080383,346.499084 
	C168.556244,356.612000 172.541122,364.498322 179.022018,371.682434 
	C190.856888,384.801514 205.104187,394.826355 220.002533,404.052673 
	C221.478378,404.966644 222.772095,406.174713 224.105164,407.609131 
	C204.314987,402.815430 186.282532,394.196106 169.511963,382.478302 
	C158.817474,375.005951 146.013824,372.742981 133.243561,371.106232 
	C130.771255,370.789337 128.285782,370.575317 125.402664,370.172546 
z"/>
<path fill="#EAE8F5" opacity="1.000000" stroke="none" 
	d="
M281.215393,271.998779 
	C291.335175,271.998932 300.982574,272.114990 310.624451,271.935455 
	C313.943359,271.873657 314.995728,273.114075 314.975250,276.277924 
	C314.884796,290.244476 314.936127,304.211914 314.936127,318.589996 
	C295.505737,318.589996 276.184113,318.589996 256.588196,318.589996 
	C256.588196,299.543884 256.588196,280.506683 256.588196,259.956696 
	C263.856262,266.878601 270.916504,272.599091 281.215393,271.998779 
z"/>
<path fill="#9E4E1C" opacity="1.000000" stroke="none" 
	d="
M187.182129,309.945221 
	C187.182007,299.958557 187.181839,290.464569 187.181366,280.970612 
	C187.180984,273.154846 187.322800,273.009430 194.901199,273.000153 
	C204.394928,272.988525 213.894623,272.763519 223.380447,273.031006 
	C230.542023,273.232941 236.379333,271.151642 240.935074,265.469910 
	C242.312225,263.752380 244.279373,262.507935 246.679993,260.440857 
	C246.679993,280.406921 246.679993,299.287262 246.679993,318.584534 
	C227.145828,318.584534 207.591141,318.584534 187.181931,318.584534 
	C187.181931,315.941315 187.181931,313.189606 187.182129,309.945221 
z"/>
<path fill="#FBFBFC" opacity="1.000000" stroke="none" 
	d="
M199.089615,245.992035 
	C202.044861,245.888779 204.536987,245.825867 207.024216,245.679642 
	C216.172394,245.141861 218.047699,246.991882 217.851578,256.798889 
	C209.809921,256.798889 201.755096,256.798889 193.508636,256.798889 
	C193.508636,253.349823 193.508636,249.948059 193.508636,246.220535 
	C195.421112,246.135910 197.022675,246.065048 199.089615,245.992035 
z"/>
<path fill="#FAF9FB" opacity="1.000000" stroke="none" 
	d="
M290.324890,246.135803 
	C297.153137,246.003235 303.598938,246.003235 310.391785,246.003235 
	C310.391785,249.274551 310.391785,252.327957 310.391785,255.700134 
	C302.691956,255.700134 294.986389,255.700134 285.602661,255.700134 
	C287.282349,252.049637 288.612396,249.159012 290.324890,246.135803 
z"/>
<path fill="#F2F1F2" opacity="1.000000" stroke="none" 
	d="
M260.579071,415.034454 
	C261.909271,416.297516 262.882538,417.679443 263.855835,419.061401 
	C263.490173,419.416351 263.124542,419.771271 262.758881,420.126221 
	C259.804932,418.888733 255.843582,422.845306 253.630219,417.460388 
	C255.844345,416.385376 258.033234,415.769348 260.579071,415.034454 
z"/>
<path fill="#E7E7E7" opacity="1.000000" stroke="none" 
	d="
M248.331940,417.018921 
	C247.838089,417.878845 247.066437,419.223206 246.147202,419.333099 
	C244.072357,419.581116 241.924591,419.218903 239.201965,419.072418 
	C239.130920,417.733612 239.058670,416.371887 239.045227,414.579346 
	C242.065063,415.080048 245.026108,416.011505 248.331940,417.018921 
z"/>
<path fill="#FCFCFC" opacity="1.000000" stroke="none" 
	d="
M225.854736,420.183655 
	C237.013092,421.124176 247.727173,422.321106 258.469269,423.159149 
	C261.911591,423.427704 265.444031,422.879578 268.905487,422.460022 
	C271.789734,422.110443 273.307953,422.750275 273.269409,426.045807 
	C273.156464,435.700653 273.153778,445.358673 273.277832,455.013275 
	C273.314301,457.848877 272.021484,459.159943 269.474487,459.013824 
	C255.729736,458.225128 241.984131,457.408905 228.265289,456.280457 
	C226.954102,456.172577 224.806793,453.870422 224.773804,452.543976 
	C224.517395,442.232727 224.676346,431.910858 224.750488,421.592590 
	C224.753586,421.160461 225.187912,420.731445 225.854736,420.183655 
z"/>
<path fill="#F9F9F9" opacity="1.000000" stroke="none" 
	d="
M284.801056,456.877472 
	C283.364288,455.840576 281.473358,454.741730 281.445068,453.596893 
	C281.207123,443.965637 281.170990,434.321747 281.458984,424.693207 
	C281.502869,423.226227 283.317627,420.813599 284.661682,420.538086 
	C298.559174,417.689667 311.555756,412.654327 323.741272,405.435974 
	C324.093903,405.227081 324.678345,405.409576 325.785400,405.409576 
	C325.785400,416.365173 325.976990,427.256653 325.588776,438.127441 
	C325.527161,439.853851 323.158356,441.990997 321.341797,443.080933 
	C310.138763,449.802795 297.968964,454.104218 284.801056,456.877472 
z"/>
<path fill="#FDFDFD" opacity="1.000000" stroke="none" 
	d="
M123.057281,382.293518 
	C137.609497,381.895477 151.415009,385.107422 164.542343,391.210175 
	C166.033646,391.903473 167.797043,394.013458 167.836029,395.508209 
	C168.117432,406.294647 167.986893,417.091827 167.986893,428.799316 
	C153.608154,422.052094 138.987610,418.976074 123.455757,417.473022 
	C123.043327,405.328827 123.050301,393.811188 123.057281,382.293518 
z"/>
<path fill="#FBFBFB" opacity="1.000000" stroke="none" 
	d="
M338.083740,433.878967 
	C336.250946,434.349182 334.418121,434.819366 332.096558,435.414948 
	C332.096558,424.138245 332.015686,413.500702 332.195831,402.867584 
	C332.219147,401.492584 333.263031,399.383606 334.390289,398.893372 
	C347.464447,393.207520 360.643066,387.761719 373.811340,382.294037 
	C374.187866,382.137695 374.755951,382.442810 375.919373,382.661407 
	C375.919373,391.013184 375.971710,399.443420 375.906799,407.872772 
	C375.815247,419.765411 377.339783,416.764160 366.828796,421.082031 
	C357.218140,425.030090 347.699249,429.201508 338.107483,433.622131 
	C338.075104,433.969757 338.083740,433.878967 338.083740,433.878967 
z"/>
<path fill="#F9F9F9" opacity="1.000000" stroke="none" 
	d="
M180.501404,437.480560 
	C175.653427,435.326935 174.034012,432.040527 174.242294,427.010864 
	C174.631958,417.600525 174.354340,408.162506 174.354340,397.869293 
	C176.256165,398.800293 177.348679,399.347687 178.451645,399.873138 
	C189.623535,405.195557 200.689453,410.762207 212.032303,415.691406 
	C215.698242,417.284485 217.132187,418.980103 217.000366,422.932709 
	C216.729019,431.068390 216.922607,439.219452 216.917709,447.364166 
	C216.913879,453.760742 216.560852,454.266724 210.484131,451.625763 
	C200.466751,447.272186 190.689667,442.365631 180.501404,437.480560 
z"/>
<path fill="#FEFEFE" opacity="1.000000" stroke="none" 
	d="
M105.996964,417.970215 
	C92.771881,420.571411 79.546799,423.172577 66.024765,425.832123 
	C66.024765,415.811646 65.839684,404.866730 66.231346,393.942505 
	C66.287804,392.367737 68.851318,390.244019 70.709633,389.477692 
	C81.707634,384.942291 93.245911,382.654388 105.551819,382.625977 
	C105.983719,394.763763 105.990334,406.367004 105.996964,417.970215 
z"/>
<path fill="#FFFFFF" opacity="1.000000" stroke="none" 
	d="
M408.052582,375.640259 
	C414.854645,375.462067 421.660980,375.105164 428.455017,375.265961 
	C429.718353,375.295807 431.975311,377.380524 432.006317,378.563263 
	C432.285370,389.189178 432.169312,399.825439 432.169312,410.410919 
	C420.188141,411.341644 408.515686,412.248383 396.412750,412.623718 
	C395.999084,400.492615 396.015930,388.892914 396.032745,377.293243 
	C396.461853,377.158813 396.890991,377.024353 397.784424,377.165527 
	C398.847687,377.126648 399.446625,376.812103 400.045532,376.497559 
	C401.743378,376.283112 403.441223,376.068726 405.681610,376.139923 
	C406.833649,376.163757 407.443115,375.902039 408.052582,375.640259 
z"/>
<path fill="#EAEAEA" opacity="1.000000" stroke="none" 
	d="
M395.629517,377.213440 
	C396.015930,388.892914 395.999084,400.492615 395.989136,412.563110 
	C392.184082,413.893066 388.372162,414.752167 383.461334,415.858917 
	C383.461334,411.400787 383.461365,407.838257 383.461304,404.275696 
	C383.461212,397.955414 383.736359,391.619141 383.369476,385.320221 
	C383.100098,380.695343 384.789337,378.462738 389.332886,378.092773 
	C391.310242,377.931793 393.262573,377.462769 395.629517,377.213440 
z"/>
<path fill="#EDEDED" opacity="1.000000" stroke="none" 
	d="
M106.425423,418.072754 
	C105.990334,406.367004 105.983719,394.763763 105.976784,382.708618 
	C113.057564,381.138947 113.116661,381.180786 113.119286,387.954987 
	C113.122360,395.903229 112.831886,403.864838 113.210510,411.794800 
	C113.447746,416.763641 111.973381,419.027069 106.425423,418.072754 
z"/>
<path fill="#DAD9D9" opacity="1.000000" stroke="none" 
	d="
M122.661568,382.313049 
	C123.050301,393.811188 123.043327,405.328827 123.044601,417.299072 
	C122.449829,416.894623 121.330811,416.042725 121.322334,415.179901 
	C121.220207,404.785217 121.267555,394.388824 121.342567,383.993347 
	C121.346573,383.437561 121.944443,382.886078 122.661568,382.313049 
z"/>
<path fill="#CECECE" opacity="1.000000" stroke="none" 
	d="
M260.523499,467.697723 
	C257.019287,467.402283 252.131622,469.322601 253.853348,462.553925 
	C256.936615,462.553925 259.837555,462.553925 264.643646,462.553925 
	C262.989014,464.843933 261.960602,466.267273 260.523499,467.697723 
z"/>
<path fill="#D7D7D7" opacity="1.000000" stroke="none" 
	d="
M299.187256,461.231567 
	C297.874298,461.606445 296.943024,461.876862 296.002563,462.149902 
	C294.707397,456.858185 294.773560,456.799622 304.214294,454.653992 
	C306.450104,459.539368 302.608337,460.050110 299.187256,461.231567 
z"/>
<path fill="#E2E2E2" opacity="1.000000" stroke="none" 
	d="
M429.665039,419.530273 
	C428.317413,418.136688 427.399261,416.818115 426.481110,415.499573 
	C426.781097,415.087738 427.081116,414.675934 427.381104,414.264130 
	C430.409790,414.580383 433.438477,414.896606 436.773804,415.244843 
	C436.892822,416.817291 437.000000,418.233490 437.156281,420.297852 
	C434.564240,420.043671 432.329407,419.824493 429.665039,419.530273 
z"/>
<path fill="#D7D7D7" opacity="1.000000" stroke="none" 
	d="
M366.164490,424.939819 
	C367.392487,432.064148 361.006958,429.892700 358.291779,432.408813 
	C356.735657,427.069122 357.424347,426.417725 366.164490,424.939819 
z"/>
<path fill="#E2E2E2" opacity="1.000000" stroke="none" 
	d="
M431.937927,367.115448 
	C433.829193,367.307495 435.274780,367.475403 436.869934,367.660675 
	C436.869934,369.370148 436.869934,370.800751 436.869934,372.635986 
	C435.217010,372.502289 433.793793,372.379211 432.369263,372.274139 
	C430.888885,372.164978 429.407227,372.073242 427.494354,371.944946 
	C427.330719,370.539490 427.169464,369.154175 426.929321,367.091309 
	C428.680847,367.091309 430.086578,367.091309 431.937927,367.115448 
z"/>
<path fill="#E7E7E7" opacity="1.000000" stroke="none" 
	d="
M234.844055,413.158203 
	C234.765015,414.791138 234.765015,416.374847 234.765015,417.975861 
	C224.997726,417.208679 224.692154,416.990356 225.538681,411.381287 
	C228.383347,411.981506 231.221329,412.580292 234.445007,413.224884 
	C234.830704,413.270691 234.923096,413.108917 234.844055,413.158203 
z"/>
<path fill="#DDDDDD" opacity="1.000000" stroke="none" 
	d="
M83.106613,377.165710 
	C84.926132,376.775055 86.349060,376.455292 87.758255,376.138611 
	C89.231255,381.361786 89.231255,381.361786 79.492569,383.054047 
	C78.076195,379.729889 79.116356,377.796661 83.106613,377.165710 
z"/>
<path fill="#DAD9D9" opacity="1.000000" stroke="none" 
	d="
M338.029572,433.972076 
	C339.018982,435.188019 340.687927,436.308044 340.885345,437.645325 
	C341.039307,438.687988 339.580048,440.299316 338.447937,441.120789 
	C336.907623,442.238464 334.996033,442.844452 333.243652,443.669861 
	C332.828278,443.375580 332.412933,443.081299 331.997559,442.787048 
	C332.964996,441.119690 333.798370,439.352448 334.942719,437.816925 
	C335.839203,436.613922 337.120728,435.697876 338.157471,434.266632 
	C338.083740,433.878967 338.075104,433.969757 338.029572,433.972076 
z"/>
<path fill="#E0E0E0" opacity="1.000000" stroke="none" 
	d="
M95.233932,380.055206 
	C92.624359,377.750397 91.992599,375.708496 95.970711,374.838867 
	C98.037224,374.387085 100.169220,374.234772 102.837669,373.869751 
	C102.949631,375.635406 103.045563,377.148315 103.154465,378.865692 
	C100.430580,379.293701 98.043350,379.668823 95.233932,380.055206 
z"/>
<path fill="#D7D7D7" opacity="1.000000" stroke="none" 
	d="
M392.879028,369.359985 
	C395.108429,372.979828 393.597290,374.593048 390.021942,375.094330 
	C388.235229,375.344788 386.468964,375.741241 384.651855,376.079407 
	C383.099457,372.350342 384.525543,370.666687 388.082581,370.191040 
	C389.562866,369.993103 391.017822,369.606171 392.879028,369.359985 
z"/>
<path fill="#E2E2E2" opacity="1.000000" stroke="none" 
	d="
M129.988617,426.799988 
	C127.254356,426.514954 124.943481,426.290771 122.253006,426.029755 
	C122.165871,424.712585 122.072258,423.297485 121.961731,421.626831 
	C125.311676,421.626831 128.366440,421.626831 132.698242,421.626831 
	C131.716034,423.875458 131.064011,425.368164 129.988617,426.799988 
z"/>
<path fill="#DFDFDF" opacity="1.000000" stroke="none" 
	d="
M136.119858,426.691345 
	C136.011993,425.043884 136.088928,423.769653 136.216400,421.658447 
	C139.405457,424.536469 146.418793,420.583466 145.422241,429.193665 
	C142.209473,428.443420 139.257080,427.753998 136.119858,426.691345 
z"/>
<path fill="#E0E0E0" opacity="1.000000" stroke="none" 
	d="
M283.086731,460.232635 
	C286.044434,459.556885 288.602142,459.000977 291.154968,458.446106 
	C292.437317,463.810852 291.390167,464.573608 281.900696,465.009979 
	C282.174194,463.389435 282.430481,461.870972 283.086731,460.232635 
z"/>
<path fill="#E5E4E4" opacity="1.000000" stroke="none" 
	d="
M234.604156,465.264038 
	C231.429092,465.114014 228.498276,464.645752 225.310913,464.136505 
	C225.310913,462.423279 225.310913,460.874237 225.310913,457.678131 
	C228.266632,461.854645 235.711868,456.544525 234.604156,465.264038 
z"/>
<path fill="#DFDFDF" opacity="1.000000" stroke="none" 
	d="
M246.665558,467.200500 
	C243.928650,466.939270 241.629044,466.690277 239.129608,466.419617 
	C239.129608,464.732544 239.129608,463.301208 239.129608,461.340363 
	C242.212646,461.651794 245.107086,461.944183 249.284210,462.366150 
	C248.408951,464.310822 247.755905,465.761749 246.665558,467.200500 
z"/>
<path fill="#D7D7D7" opacity="1.000000" stroke="none" 
	d="
M158.810089,428.175598 
	C159.266754,429.841797 159.440140,431.256989 159.631195,432.816498 
	C150.083359,431.109985 149.828842,430.897064 150.637283,425.208710 
	C153.307846,426.128021 155.917328,427.026306 158.810089,428.175598 
z"/>
<path fill="#DAD9D9" opacity="1.000000" stroke="none" 
	d="
M393.837219,418.187042 
	C393.283661,425.351746 387.512573,421.247833 384.323761,424.570465 
	C384.323761,421.647736 384.323761,420.245605 384.323761,417.767944 
	C387.595062,417.767944 390.685364,417.767944 393.837219,418.187042 
z"/>
<path fill="#E5E4E4" opacity="1.000000" stroke="none" 
	d="
M287.546631,411.652222 
	C292.096161,410.274689 292.383240,412.412964 291.506622,415.877106 
	C288.523346,416.534790 285.511749,417.198700 282.256714,417.916290 
	C282.256714,416.203888 282.256714,414.607361 282.256714,412.787964 
	C283.981812,412.446838 285.573181,412.132141 287.546631,411.652222 
z"/>
<path fill="#E7E7E7" opacity="1.000000" stroke="none" 
	d="
M272.642944,461.704590 
	C274.512512,461.497406 275.958160,461.351807 277.726807,461.173645 
	C277.726807,462.902130 277.726807,464.444153 277.726807,466.218048 
	C274.608612,466.558899 271.586517,466.889252 268.614532,467.214142 
	C267.121277,463.154602 268.594849,461.664886 272.642944,461.704590 
z"/>
<path fill="#E2E2E2" opacity="1.000000" stroke="none" 
	d="
M145.244232,380.750305 
	C142.069626,380.722900 139.170547,380.381500 136.144119,380.025116 
	C136.144119,378.234985 136.144119,376.821472 136.144119,374.250458 
	C139.464325,377.025665 145.764969,372.785828 145.244232,380.750305 
z"/>
<path fill="#DFDFDF" opacity="1.000000" stroke="none" 
	d="
M101.192551,421.576172 
	C102.263252,422.955292 102.931595,424.429596 103.922943,426.616455 
	C99.839844,426.975433 96.933746,427.230927 93.896576,427.497955 
	C92.593468,423.793457 93.292992,421.906494 97.376160,422.159119 
	C98.499817,422.228638 99.651413,421.846375 101.192551,421.576172 
z"/>
<path fill="#E0E0E0" opacity="1.000000" stroke="none" 
	d="
M88.552895,425.115143 
	C88.011360,431.938965 82.365189,428.572845 79.187103,431.164154 
	C79.187103,428.860291 79.187103,427.423584 79.187103,425.216553 
	C82.367401,425.044067 85.431023,424.877899 88.552895,425.115143 
z"/>
<path fill="#E7E7E7" opacity="1.000000" stroke="none" 
	d="
M418.059998,419.245605 
	C415.970032,419.246155 414.348450,419.246155 412.542877,419.246155 
	C412.542877,417.401978 412.542877,416.028107 412.542877,414.433105 
	C415.750092,414.433105 418.668243,414.433105 421.746307,414.433105 
	C422.666840,417.511475 422.727661,419.775970 418.059998,419.245605 
z"/>
<path fill="#E5E4E4" opacity="1.000000" stroke="none" 
	d="
M124.150955,373.746460 
	C126.875198,373.947388 129.137543,374.122101 131.713303,374.321014 
	C131.788574,375.919922 131.853348,377.295654 131.922974,378.774536 
	C128.620544,378.774536 125.602097,378.774536 121.180084,378.774536 
	C122.285339,376.548004 122.987198,375.134094 124.150955,373.746460 
z"/>
<path fill="#EAEAEA" opacity="1.000000" stroke="none" 
	d="
M268.219727,415.390900 
	C271.382355,414.488647 274.430817,414.024292 277.473145,413.560883 
	C278.404938,419.411438 278.404938,419.411438 268.348816,419.128143 
	C268.269318,418.049805 268.187469,416.939301 268.219727,415.390900 
z"/>
<path fill="#DDDDDD" opacity="1.000000" stroke="none" 
	d="
M365.664673,381.834045 
	C362.909729,382.941742 360.455688,383.825439 357.758423,384.796722 
	C356.137970,377.358276 362.457642,378.950409 366.338776,376.095093 
	C366.167358,378.627686 366.066437,380.118896 365.664673,381.834045 
z"/>
<path fill="#E2E2E2" opacity="1.000000" stroke="none" 
	d="
M422.112427,367.939575 
	C421.293915,369.566132 420.580444,371.423218 419.442963,371.735382 
	C417.442322,372.284393 415.182434,371.888794 412.861145,371.888794 
	C411.400696,368.289642 412.288269,366.435730 416.329987,366.751495 
	C418.236023,366.900391 420.128113,367.227783 422.112427,367.939575 
z"/>
<path fill="#E5E4E4" opacity="1.000000" stroke="none" 
	d="
M113.908890,426.228516 
	C111.822906,426.231903 110.204620,426.231903 108.241425,426.231903 
	C108.152092,424.629883 108.074997,423.247375 107.977646,421.501587 
	C111.293716,421.501587 114.316025,421.501587 117.612419,421.501587 
	C118.220818,424.272095 118.604721,426.707306 113.908890,426.228516 
z"/>
<path fill="#DFDFDF" opacity="1.000000" stroke="none" 
	d="
M151.073181,378.160919 
	C154.536026,379.762329 160.447815,378.196625 159.351517,384.849915 
	C151.655136,384.514069 149.856842,383.109772 151.073181,378.160919 
z"/>
<path fill="#DDDDDD" opacity="1.000000" stroke="none" 
	d="
M300.862732,413.147827 
	C298.917786,413.646698 297.368591,414.043182 295.760620,414.454681 
	C295.113861,409.137604 295.734558,408.643555 304.226654,407.308289 
	C305.794006,410.545837 304.244629,412.158722 300.862732,413.147827 
z"/>
<path fill="#DFDFDF" opacity="1.000000" stroke="none" 
	d="
M352.092804,434.764587 
	C349.505219,435.973236 347.243408,436.944397 344.948090,437.929993 
	C343.771790,432.733978 344.338501,432.161285 353.231110,429.688873 
	C352.935822,431.447144 352.677216,432.987152 352.092804,434.764587 
z"/>
<path fill="#E5E4E4" opacity="1.000000" stroke="none" 
	d="
M406.317352,372.296265 
	C403.468658,372.768158 401.040863,373.080414 398.645081,373.388580 
	C396.963928,367.994171 397.237732,367.804962 407.311890,367.596588 
	C407.114349,369.160034 406.926300,370.648346 406.317352,372.296265 
z"/>
<path fill="#DDDDDD" opacity="1.000000" stroke="none" 
	d="
M309.312256,452.653351 
	C311.942413,451.074066 314.398651,449.854309 317.159210,448.483459 
	C318.984161,455.734344 312.734741,454.807709 309.138336,457.911621 
	C309.138336,455.689636 309.138336,454.351257 309.312256,452.653351 
z"/>
<path fill="#E0E0E0" opacity="1.000000" stroke="none" 
	d="
M374.918396,373.704224 
	C376.741974,373.198639 378.165710,372.843628 379.775726,372.442169 
	C381.571564,380.121735 374.643341,377.710052 371.573761,380.122894 
	C370.549072,376.750397 370.590546,374.353760 374.918396,373.704224 
z"/>
<path fill="#EAEAEA" opacity="1.000000" stroke="none" 
	d="
M407.326538,418.024048 
	C404.463654,419.469391 401.610138,420.452026 398.756653,421.434631 
	C398.295013,421.094788 397.833374,420.754974 397.371704,420.415131 
	C398.198303,418.813446 398.896088,415.957520 399.876770,415.856812 
	C402.335571,415.604340 405.933899,412.719238 407.326538,418.024048 
z"/>
<path fill="#DDDDDD" opacity="1.000000" stroke="none" 
	d="
M72.854187,427.929779 
	C73.896484,428.247437 75.250214,428.895844 75.177414,429.184662 
	C74.856606,430.457581 74.436752,432.123383 73.475044,432.728180 
	C71.595978,433.909912 69.330925,434.477875 67.026382,435.377808 
	C64.940674,429.594879 69.531479,429.475067 72.854187,427.929779 
z"/>
<path fill="#EAEAEA" opacity="1.000000" stroke="none" 
	d="
M214.495056,413.507141 
	C213.208008,411.868561 212.309387,410.392761 210.964188,408.183594 
	C220.841629,409.394928 221.330292,409.793549 220.560699,415.255890 
	C218.650192,414.722168 216.766830,414.196045 214.495056,413.507141 
z"/>
<path fill="#E5E4E4" opacity="1.000000" stroke="none" 
	d="
M217.045807,461.908081 
	C213.231735,461.122772 210.599487,459.916443 212.616577,455.328735 
	C215.508911,457.546997 222.354584,454.883667 220.774033,462.794678 
	C219.552689,462.515259 218.492416,462.272705 217.045807,461.908081 
z"/>
<path fill="#E7E7E7" opacity="1.000000" stroke="none" 
	d="
M374.359009,421.342468 
	C376.337524,420.847809 377.918182,420.447174 379.858032,419.955505 
	C379.957184,421.664246 380.040161,423.094421 380.135773,424.742615 
	C377.157318,425.644653 374.376282,426.486908 371.528015,427.349518 
	C370.539978,424.414307 370.678375,422.243103 374.359009,421.342468 
z"/>
<path fill="#DFDFDF" opacity="1.000000" stroke="none" 
	d="
M71.977081,380.718506 
	C73.289291,380.679321 74.238792,380.820251 75.188301,380.961182 
	C74.727280,382.365173 74.685028,384.388275 73.717155,385.042938 
	C71.764107,386.363953 69.307968,386.941193 66.991791,387.851776 
	C65.031990,382.889954 68.528770,382.038483 71.977081,380.718506 
z"/>
<path fill="#DDDDDD" opacity="1.000000" stroke="none" 
	d="
M317.611633,404.728119 
	C315.005890,406.698090 312.455933,408.301605 309.660156,410.059692 
	C308.643036,404.504578 307.390778,405.472961 317.124573,401.174011 
	C317.317169,402.304840 317.492310,403.333252 317.611633,404.728119 
z"/>
<path fill="#E7E7E7" opacity="1.000000" stroke="none" 
	d="
M353.078369,384.973816 
	C350.550049,387.179871 348.025146,388.986603 345.267914,390.959564 
	C343.760529,385.225098 343.768860,385.216492 352.753693,382.200439 
	C352.867126,383.021149 352.974457,383.797821 353.078369,384.973816 
z"/>
<path fill="#D7D7D7" opacity="1.000000" stroke="none" 
	d="
M324.628296,449.327881 
	C323.625183,449.875732 322.921387,450.236938 321.970367,450.725098 
	C320.052063,444.299164 325.829224,444.335602 328.376190,441.376190 
	C330.573700,446.017181 327.554779,447.479919 324.628296,449.327881 
z"/>
<path fill="#E0E0E0" opacity="1.000000" stroke="none" 
	d="
M164.715027,383.255005 
	C168.090607,385.291534 173.223801,385.591858 171.544403,392.192383 
	C168.838348,389.051178 162.117844,390.291687 164.715027,383.255005 
z"/>
<path fill="#E5E4E4" opacity="1.000000" stroke="none" 
	d="
M204.572784,452.517029 
	C205.969238,454.190491 206.974930,455.689178 208.496902,457.957214 
	C199.977982,457.048004 198.639923,455.918640 199.129822,450.677460 
	C200.869629,451.250763 202.525833,451.796509 204.572784,452.517029 
z"/>
<path fill="#E0E0E0" opacity="1.000000" stroke="none" 
	d="
M163.880310,432.798950 
	C165.847931,430.578491 171.241623,432.967072 171.904007,436.027557 
	C172.104156,436.952209 171.843185,437.976685 171.706863,440.658356 
	C168.516479,437.623871 166.196854,435.417603 163.880310,432.798950 
z"/>
<path fill="#EAEAEA" opacity="1.000000" stroke="none" 
	d="
M199.753555,403.284698 
	C202.935577,405.179810 208.942215,404.169647 206.664658,411.426880 
	C204.292953,408.174561 196.615250,411.097870 199.753555,403.284698 
z"/>
<path fill="#E7E7E7" opacity="1.000000" stroke="none" 
	d="
M185.990082,398.179443 
	C191.154510,397.418945 194.082306,400.031616 193.764557,405.354980 
	C190.757080,403.227356 186.037430,403.864655 185.990082,398.179443 
z"/>
<path fill="#DDDDDD" opacity="1.000000" stroke="none" 
	d="
M175.672775,437.816284 
	C178.962799,440.019165 184.094406,440.489258 182.398315,446.983368 
	C179.365875,444.033569 173.498398,444.284241 175.672775,437.816284 
z"/>
<path fill="#E2E2E2" opacity="1.000000" stroke="none" 
	d="
M182.194183,398.784851 
	C178.891281,396.540833 173.491180,396.114319 175.419754,389.740051 
	C178.364563,392.559143 184.263794,392.441711 182.194183,398.784851 
z"/>
<path fill="#EAEAEA" opacity="1.000000" stroke="none" 
	d="
M340.955322,391.505615 
	C338.378448,393.364136 335.887360,394.823090 333.099396,396.455902 
	C331.307617,389.117310 337.532135,389.994049 340.754486,387.189484 
	C340.881775,388.928406 340.961456,390.017212 340.955322,391.505615 
z"/>
<path fill="#EAEAEA" opacity="1.000000" stroke="none" 
	d="
M189.078125,445.492615 
	C192.235962,447.057922 195.521027,448.110199 193.559982,452.711945 
	C190.354889,450.672363 184.842941,450.984070 186.244736,444.321381 
	C187.238861,444.715149 187.972183,445.005585 189.078125,445.492615 
z"/>
<path fill="#F2F1F2" opacity="1.000000" stroke="none" 
	d="
M116.543953,377.693146 
	C114.350899,377.989014 112.442215,378.355194 110.736031,377.922607 
	C109.547073,377.621185 108.635841,376.224335 108.151787,374.563354 
	C110.968391,376.312897 116.480484,369.928711 116.543953,377.693146 
z"/>
<path fill="#EAEAEA" opacity="1.000000" stroke="none" 
	d="
M328.376404,394.464355 
	C330.689606,400.507355 325.151428,400.613892 322.140808,403.194214 
	C320.097870,397.170166 325.474091,396.811096 328.376404,394.464355 
z"/>
<path fill="#EAEAEA" opacity="1.000000" stroke="none" 
	d="
M407.790955,375.522400 
	C407.443115,375.902039 406.833649,376.163757 406.107056,376.197510 
	C406.503113,375.781189 407.016205,375.592834 407.790955,375.522400 
z"/>
<path fill="#EAEAEA" opacity="1.000000" stroke="none" 
	d="
M399.771057,376.414856 
	C399.446625,376.812103 398.847687,377.126648 398.121552,377.212067 
	C398.495087,376.765991 398.995819,376.549072 399.771057,376.414856 
z"/>
<path fill="#34176C" opacity="1.000000" stroke="none" 
	d="
M205.032852,68.464348 
	C219.811859,68.464348 234.590851,68.464348 249.938080,68.464348 
	C249.938080,64.156815 249.938080,60.611454 249.938080,57.066097 
	C253.863983,60.024456 251.657822,64.179390 253.097519,68.339417 
	C267.798828,68.339417 282.777924,68.339417 297.757019,68.339417 
	C297.757660,68.822319 297.758331,69.305222 297.758972,69.788124 
	C282.843597,69.788124 267.928253,69.788124 252.661972,69.788124 
	C252.661972,98.526192 252.661972,126.574120 252.661972,154.861252 
	C255.295349,154.861252 257.761810,154.861252 260.612823,154.861252 
	C260.757446,156.250748 260.881805,157.445724 261.048950,159.051666 
	C258.881226,159.051666 257.024994,159.051666 254.379562,159.051666 
	C271.142914,166.806961 277.737122,177.358994 274.550751,190.402054 
	C271.632751,202.346634 261.176758,210.405472 248.994492,210.099213 
	C237.353439,209.806564 227.058197,201.144745 224.943054,189.863739 
	C222.531265,177.000641 228.715363,166.085663 241.353699,160.902832 
	C241.257034,159.516022 241.158035,158.129303 241.301102,156.272858 
	C241.754532,155.636200 241.905334,155.425827 241.995544,155.172043 
	C244.450531,155.051926 246.905533,154.931793 249.586670,154.800613 
	C249.586670,126.725220 249.586670,98.859177 249.586670,70.151550 
	C236.417343,70.151550 223.209534,70.151550 209.151871,70.000290 
	C207.508698,69.915718 206.715393,69.982399 205.922073,70.049080 
	C205.922073,70.049080 205.444778,70.111633 205.230865,69.770630 
	C205.042435,69.108200 205.047745,68.786438 205.032852,68.464348 
z"/>
<path fill="#34176C" opacity="1.000000" stroke="none" 
	d="
M167.912933,125.915848 
	C177.577301,131.021744 182.745529,138.705917 182.545242,149.345016 
	C182.366028,158.864258 177.860626,166.231522 169.568985,170.937454 
	C159.039734,176.913330 146.263870,174.635834 138.250916,165.654251 
	C130.577988,157.053802 129.849060,143.685028 136.540085,134.276962 
	C143.595367,124.356735 156.007782,120.962868 167.912933,125.915848 
z"/>
<path fill="#34176C" opacity="1.000000" stroke="none" 
	d="
M356.341858,169.428665 
	C344.571228,176.563766 332.778168,175.439774 323.637970,166.568069 
	C315.707672,158.870743 314.055115,145.943619 319.759644,136.230194 
	C325.282990,126.825256 334.825500,122.184212 346.041840,124.018150 
	C356.578613,125.740982 363.277130,132.184906 366.245972,142.343796 
	C369.169647,152.348282 365.488129,162.300095 356.341858,169.428665 
z"/>
<path fill="#371A6E" opacity="1.000000" stroke="none" 
	d="
M275.396240,121.880753 
	C275.879181,120.209953 276.362152,118.539154 277.301819,116.422318 
	C277.892578,115.327759 278.026581,114.679253 278.160583,114.030739 
	C281.993774,104.763702 285.955963,95.547066 289.605682,86.208321 
	C291.425232,81.552521 292.672913,76.673218 294.189209,71.863426 
	C296.277466,77.637100 298.566589,83.966057 300.653137,90.819557 
	C300.899628,91.914406 301.348663,92.484703 301.797699,93.055008 
	C302.478424,94.486473 303.159149,95.917938 303.633484,97.853287 
	C303.880035,98.924110 304.333008,99.491051 304.786011,100.057983 
	C308.189178,107.870186 311.592346,115.682404 315.136627,123.818565 
	C313.431854,125.404068 310.841095,127.250198 308.970795,129.656326 
	C302.803101,137.590851 286.249603,137.789978 280.024048,129.866943 
	C278.406799,127.808716 276.060699,126.335625 274.270264,124.390465 
	C273.918152,124.007919 274.582306,122.689972 275.577545,121.835762 
	C278.886414,121.868088 281.395508,121.868088 283.904602,121.868088 
	C283.878632,121.498001 283.852631,121.127914 283.826630,120.757828 
	C281.016510,121.132141 278.206360,121.506447 275.396240,121.880753 
M309.824249,121.979118 
	C310.095673,121.710434 310.367096,121.441742 310.638519,121.173050 
	C310.487579,121.134926 310.336761,121.064323 310.185638,121.063637 
	C308.460083,121.055832 306.734528,121.058678 305.008942,121.058678 
	C305.003845,121.295883 304.998718,121.533089 304.993591,121.770287 
	C306.361847,121.841530 307.730133,121.912773 309.824249,121.979118 
z"/>
<path fill="#34176C" opacity="1.000000" stroke="none" 
	d="
M226.574219,121.947815 
	C227.375671,122.270645 228.177109,122.593483 228.978561,122.916321 
	C229.174896,123.411827 229.371216,123.907333 229.567551,124.402832 
	C223.832809,127.987587 218.465714,132.537582 212.265137,134.899246 
	C205.373001,137.524277 198.556870,135.316223 193.220840,129.718796 
	C191.392807,127.801216 189.284973,126.151398 187.437073,124.250801 
	C187.094528,123.898483 187.384186,122.931488 188.106567,122.094513 
	C191.547623,121.940826 194.264191,121.940826 196.980759,121.940826 
	C196.979767,121.815453 196.978760,121.690071 196.977768,121.564697 
	C194.343292,121.047829 191.708832,120.530952 189.074356,120.014084 
	C190.032425,117.583076 190.990494,115.152061 192.362061,112.358025 
	C192.909271,111.340691 193.042984,110.686378 193.176712,110.032066 
	C193.761551,108.581612 194.346375,107.131165 195.346863,105.331970 
	C195.890503,104.331139 196.018494,103.679047 196.146484,103.026955 
	C196.721695,101.572083 197.296890,100.117210 198.297531,98.313477 
	C198.856766,97.317505 198.990555,96.670403 199.124359,96.023300 
	C199.404495,95.234032 199.684631,94.444771 200.367371,93.325172 
	C200.901886,92.339882 201.033813,91.684937 201.165741,91.029984 
	C201.750000,89.579399 202.334244,88.128807 203.333771,86.328964 
	C203.879776,85.328453 204.010498,84.677193 204.141220,84.025932 
	C204.717987,82.571655 205.294769,81.117386 206.391190,79.359436 
	C207.634750,79.021896 208.358643,78.988029 209.082550,78.954163 
	C209.674988,80.093605 210.267426,81.233047 210.639771,82.861633 
	C210.881302,83.919464 211.342941,84.488144 211.804596,85.056816 
	C212.476791,86.488983 213.148987,87.921150 213.613586,89.858566 
	C213.863815,90.930214 214.321625,91.496605 214.779449,92.062988 
	C215.147659,92.836166 215.515854,93.609344 215.658524,94.859871 
	C215.895966,95.908875 216.358948,96.480522 216.821930,97.052155 
	C217.496078,98.484360 218.170242,99.916565 218.628693,101.848839 
	C218.872055,102.919327 219.331161,103.489746 219.790268,104.060158 
	C220.466446,105.491493 221.142609,106.922836 221.610199,108.857620 
	C221.854965,109.929718 222.308304,110.498367 222.761642,111.067017 
	C223.129654,111.840057 223.497665,112.613098 223.643326,113.863602 
	C223.881561,114.913063 224.342133,115.485062 224.802719,116.057060 
	C225.490387,117.704124 226.178055,119.351189 226.293121,121.176239 
	C223.488022,121.237549 221.255508,121.120865 219.022995,121.004181 
	C219.012192,121.318726 219.001389,121.633270 218.990585,121.947815 
	C221.518463,121.947815 224.046341,121.947815 226.574219,121.947815 
M214.618103,120.026985 
	C210.136444,120.026985 205.654800,120.026985 201.173141,120.026985 
	C203.950195,120.964180 206.726944,121.075249 209.489761,120.926697 
	C211.462982,120.820602 213.417480,120.366035 214.618103,120.026985 
z"/>
<path fill="#624B8D" opacity="1.000000" stroke="none" 
	d="
M209.107925,78.508896 
	C208.358643,78.988029 207.634750,79.021896 206.548248,79.056808 
	C206.214294,76.335342 206.242950,73.612823 206.096832,70.469696 
	C206.715393,69.982399 207.508698,69.915718 208.690552,69.949059 
	C209.097168,72.720604 209.115234,75.392120 209.107925,78.508896 
z"/>
<path fill="#624B8D" opacity="1.000000" stroke="none" 
	d="
M188.809982,120.157623 
	C191.708832,120.530952 194.343292,121.047829 196.977768,121.564697 
	C196.978760,121.690071 196.979767,121.815453 196.980759,121.940826 
	C194.264191,121.940826 191.547623,121.940826 188.378830,121.949692 
	C188.132935,121.406082 188.339279,120.853622 188.809982,120.157623 
z"/>
<path fill="#624B8D" opacity="1.000000" stroke="none" 
	d="
M275.431763,121.891663 
	C278.206360,121.506447 281.016510,121.132141 283.826630,120.757828 
	C283.852631,121.127914 283.878632,121.498001 283.904602,121.868088 
	C281.395508,121.868088 278.886414,121.868088 275.896179,121.912201 
	C275.415070,121.956314 275.467285,121.902573 275.431763,121.891663 
z"/>
<path fill="#624B8D" opacity="1.000000" stroke="none" 
	d="
M226.543137,121.923477 
	C224.046341,121.947815 221.518463,121.947815 218.990585,121.947815 
	C219.001389,121.633270 219.012192,121.318726 219.022995,121.004181 
	C221.255508,121.120865 223.488022,121.237549 226.151199,121.611870 
	C226.581863,121.869507 226.512054,121.899139 226.543137,121.923477 
z"/>
<path fill="#624B8D" opacity="1.000000" stroke="none" 
	d="
M277.937744,114.234261 
	C278.026581,114.679253 277.892578,115.327759 277.488342,116.017647 
	C277.383698,115.518608 277.549316,114.978195 277.937744,114.234261 
z"/>
<path fill="#624B8D" opacity="1.000000" stroke="none" 
	d="
M224.864166,115.757645 
	C224.342133,115.485062 223.881561,114.913063 223.639999,114.185883 
	C224.214554,114.506538 224.570084,114.982384 224.864166,115.757645 
z"/>
<path fill="#624B8D" opacity="1.000000" stroke="none" 
	d="
M192.961182,110.241196 
	C193.042984,110.686378 192.909271,111.340691 192.502121,112.030182 
	C192.401016,111.527008 192.573334,110.988663 192.961182,110.241196 
z"/>
<path fill="#624B8D" opacity="1.000000" stroke="none" 
	d="
M222.806610,110.772392 
	C222.308304,110.498367 221.854965,109.929718 221.615356,109.198746 
	C222.169922,109.516876 222.510742,109.997330 222.806610,110.772392 
z"/>
<path fill="#624B8D" opacity="1.000000" stroke="none" 
	d="
M195.917801,103.226196 
	C196.018494,103.679047 195.890503,104.331139 195.490601,105.022911 
	C195.375488,104.516876 195.532303,103.971161 195.917801,103.226196 
z"/>
<path fill="#624B8D" opacity="1.000000" stroke="none" 
	d="
M219.845123,103.762985 
	C219.331161,103.489746 218.872055,102.919327 218.630920,102.190720 
	C219.199249,102.510284 219.549606,102.988052 219.845123,103.762985 
z"/>
<path fill="#624B8D" opacity="1.000000" stroke="none" 
	d="
M211.855774,84.759369 
	C211.342941,84.488144 210.881302,83.919464 210.639206,83.190636 
	C211.208145,83.507622 211.557541,83.984764 211.855774,84.759369 
z"/>
<path fill="#624B8D" opacity="1.000000" stroke="none" 
	d="
M304.832520,99.763107 
	C304.333008,99.491051 303.880035,98.924110 303.639038,98.195145 
	C304.193665,98.511490 304.536346,98.989868 304.832520,99.763107 
z"/>
<path fill="#624B8D" opacity="1.000000" stroke="none" 
	d="
M198.882385,96.210678 
	C198.990555,96.670403 198.856766,97.317505 198.449615,98.008286 
	C198.330978,97.500656 198.485703,96.949356 198.882385,96.210678 
z"/>
<path fill="#624B8D" opacity="1.000000" stroke="none" 
	d="
M216.885696,96.752823 
	C216.358948,96.480522 215.895966,95.908875 215.653900,95.182266 
	C216.233017,95.502693 216.591248,95.978088 216.885696,96.752823 
z"/>
<path fill="#624B8D" opacity="1.000000" stroke="none" 
	d="
M301.856079,92.759270 
	C301.348663,92.484703 300.899628,91.914406 300.666443,91.185265 
	C301.226318,91.505463 301.570374,91.984497 301.856079,92.759270 
z"/>
<path fill="#624B8D" opacity="1.000000" stroke="none" 
	d="
M200.953461,91.240280 
	C201.033813,91.684937 200.901886,92.339882 200.494934,93.029144 
	C200.393661,92.525833 200.567429,91.988205 200.953461,91.240280 
z"/>
<path fill="#624B8D" opacity="1.000000" stroke="none" 
	d="
M214.819778,91.767776 
	C214.321625,91.496605 213.863815,90.930214 213.620667,90.199478 
	C214.176941,90.514282 214.518524,90.993423 214.819778,91.767776 
z"/>
<path fill="#624B8D" opacity="1.000000" stroke="none" 
	d="
M203.914032,84.225510 
	C204.010498,84.677193 203.879776,85.328453 203.475159,86.019119 
	C203.363129,85.514038 203.524979,84.969566 203.914032,84.225510 
z"/>
<path fill="#3E2374" opacity="1.000000" stroke="none" 
	d="
M204.755859,68.469040 
	C205.047745,68.786438 205.042435,69.108200 205.011749,69.671013 
	C204.830658,69.432854 204.654770,68.953293 204.755859,68.469040 
z"/>
<path fill="#3E2374" opacity="1.000000" stroke="none" 
	d="
M241.735474,155.136673 
	C241.905334,155.425827 241.754532,155.636200 241.370758,155.896667 
	C241.290695,155.693909 241.383057,155.397614 241.735474,155.136673 
z"/>
<path fill="#624B8D" opacity="1.000000" stroke="none" 
	d="
M309.461304,121.981567 
	C307.730133,121.912773 306.361847,121.841530 304.993591,121.770287 
	C304.998718,121.533089 305.003845,121.295883 305.008942,121.058678 
	C306.734528,121.058678 308.460083,121.055832 310.185638,121.063637 
	C310.336761,121.064323 310.487579,121.134926 310.638519,121.173050 
	C310.367096,121.441742 310.095673,121.710434 309.461304,121.981567 
z"/>
<path fill="#624B8D" opacity="1.000000" stroke="none" 
	d="
M214.999207,120.046974 
	C213.417480,120.366035 211.462982,120.820602 209.489761,120.926697 
	C206.726944,121.075249 203.950195,120.964180 201.173141,120.026985 
	C205.654800,120.026985 210.136444,120.026985 214.999207,120.046974 
z"/>
</svg>